<svg width="16" height="30" viewBox="0 0 16 30" fill="none" xmlns="http://www.w3.org/2000/svg">
<path d="M2.81759 1.47308C2.69065 1.3373 2.55973 1.23943 2.60071 1.29729C2.35702 1.00553 2.32717 1.02436 2.33394 0.947425C2.184 0.75346 1.97468 0.59699 2.15152 0.811244L1.68634 0.285672L1.9859 0.57808C1.96306 0.519972 1.84336 0.403188 1.72278 0.283968L1.67774 0.23925L1.66652 0.228132L1.66103 0.222613L1.63659 0.200051L1.61272 0.180331L1.5894 0.160853L1.57794 0.151195C1.57467 0.148192 1.56353 0.141294 1.55661 0.136668C1.52586 0.116718 1.49423 0.0982218 1.46182 0.081238C1.43022 0.0642762 1.40706 0.0594065 1.38096 0.0490996C1.35581 0.041065 1.33257 0.0305147 1.31005 0.026538C1.26532 0.0169615 1.22751 0.00876495 1.19998 0L1.25417 0.0042197C1.30191 0.00716241 1.34906 0.0164945 1.39441 0.0319756C1.42322 0.0413898 1.45155 0.0482882 1.49015 0.0701194C1.50838 0.0797771 1.527 0.0902464 1.54554 0.101527L1.57332 0.118976C1.58239 0.1249 1.59322 0.132042 1.59537 0.134477L1.64758 0.178464L1.65092 0.181304L1.67464 0.203055L1.68068 0.209384L1.69294 0.222045L1.71769 0.247528L1.98137 0.51981L1.96616 0.481179C2.0748 0.616874 2.31468 0.851011 2.40127 0.929571C2.39395 0.910742 2.4113 0.909769 2.31874 0.813273C2.96212 1.46399 2.43167 1.05009 2.95201 1.6039C2.9197 1.56941 2.87792 1.52786 2.81759 1.47308ZM3.44537 1.94298L3.62612 2.21453L4.0122 2.58566C4.00161 2.60506 4.26282 2.89576 4.06488 2.72046C4.03106 2.68126 3.96396 2.60384 3.90491 2.5463C3.91478 2.62153 4.38761 3.07106 4.24507 2.99161C3.95696 2.68053 3.90443 2.64133 3.74781 2.4287C3.47299 2.15447 3.26766 1.9601 3.1291 1.8425C3.05325 1.75526 3.06145 1.72377 2.96284 1.61518L3.0312 1.68741L3.09026 1.64976C3.16562 1.74731 3.25126 1.82481 3.34517 1.92261L2.96228 1.41781C3.14883 1.51634 3.55369 1.98299 3.74462 2.1397C3.49058 1.96319 3.89488 2.33391 3.44537 1.94298ZM2.96284 1.61535L2.95217 1.60423L2.96284 1.61535ZM5.95086 24.007C6.04502 23.9127 6.08386 23.8962 6.10304 23.8883L5.05137 24.9589C5.07166 24.9125 5.35865 24.5879 5.14894 24.7865C5.22519 24.6802 5.51186 24.4123 5.56869 24.389L5.47334 24.4471C5.74012 24.2254 5.85695 24.0073 5.68457 24.1535L5.70526 24.133L6.47065 23.5459C6.22998 23.8026 6.24836 23.7059 5.95086 24.007ZM1.87989 1.77287C2.01161 1.9162 2.02386 1.93795 2.00373 1.92691C1.9607 1.87705 1.91939 1.82568 1.87989 1.77287ZM6.64964 23.4087L6.88936 23.2248C6.79728 23.3024 6.71267 23.3669 6.64964 23.4087ZM4.74321 24.4324C4.74122 24.4312 4.73755 24.4321 4.74098 24.4243L4.85049 24.3437C4.84965 24.3444 4.84885 24.3452 4.8481 24.3461C4.80958 24.3778 4.77504 24.4061 4.74321 24.4324ZM11.5289 18.6606L11.6 18.5924C11.5747 18.6177 11.5511 18.64 11.5289 18.6606ZM1.72708 27.1622L2.22283 26.7148C2.14707 26.7646 2.37652 26.5389 2.26231 26.6232C2.30003 26.5891 2.47234 26.4244 2.43374 26.4778L2.33752 26.5742C2.62324 26.3631 2.48913 26.5307 2.92758 26.1447C2.69733 26.4271 2.56482 26.5187 2.41257 26.6374L2.28491 26.7565L1.84145 27.0965L1.72708 27.1622ZM8.16626 8.63915L8.16825 8.64751C8.16467 8.64159 8.16482 8.63964 8.16626 8.63915ZM8.17613 8.68111L8.16825 8.64743C8.18711 8.67949 8.2772 8.78369 8.17613 8.68111ZM6.54697 23.4615C6.56066 23.4625 6.59656 23.444 6.64964 23.4088L6.47065 23.5459L6.54697 23.4615ZM6.10447 23.7373L5.70526 24.133L5.5398 24.2601C5.6981 24.1144 5.87956 23.9402 6.10447 23.7373Z" fill="##202020"/>
<path d="M10.7955 19.2857C11.6075 18.4784 10.5517 19.4393 10.911 19.0544C11.1402 18.8341 11.2409 18.7763 11.3873 18.6425C10.7294 19.2688 11.5456 18.6273 10.8892 19.2662C11.0203 19.2134 11.3971 18.8403 11.6052 18.6088C11.815 18.3207 11.3611 18.7991 11.2678 18.8183C11.5328 18.5634 11.494 18.6164 11.625 18.527C12.0224 18.1082 12.5121 17.7258 12.7021 17.428C13.0045 17.1397 13.0033 17.1776 13.1923 17.027C13.2665 17.034 12.7763 17.4899 12.6993 17.6321C12.7184 17.6058 12.7556 17.5544 12.7371 17.5616L12.4914 17.8267C12.7186 17.5689 12.4174 17.8196 12.2852 17.9466C12.1905 18.0404 12.0022 18.2268 12.0391 18.2122L12.19 18.0777C12.0199 18.2751 11.7569 18.4549 11.5858 18.6719C11.5848 18.6913 11.6621 18.6219 11.6789 18.6165C11.4348 18.8068 11.2278 19.019 10.8879 19.3224L11.1137 19.1756C10.8131 19.3892 10.2456 19.9873 9.86705 20.4167C9.90474 20.3649 9.98036 20.279 9.92441 20.3198C9.67867 20.5483 9.5279 20.7562 9.65844 20.6672C9.39444 20.8663 8.80757 21.5824 8.44992 21.856L6.79995 23.1081C6.86261 23.0561 6.92358 23.002 6.98275 22.946C7.07883 22.7777 7.1539 22.7106 6.89037 22.9093C7.13501 22.7001 7.0771 22.8158 7.41814 22.4746C7.26713 22.5911 7.19301 22.5842 7.51414 22.2517C8.36273 21.4666 9.00217 21.024 9.81315 20.3093C9.81393 20.2536 10.418 19.6595 10.7014 19.3606C10.5616 19.4427 10.3382 19.6514 10.109 19.8707L10.6652 19.3015L10.7955 19.2857Z" fill="##202020"/>
<path d="M8.88196 21.2069C8.90146 21.1828 8.92164 21.1593 8.94249 21.1363C8.93279 21.1506 8.91502 21.1719 8.88196 21.2069ZM10.1637 20.0138C10.1596 20.0157 10.1598 20.0138 10.1576 20.0137L10.2339 19.9423L10.1637 20.0138ZM6.55675 23.2518C6.49819 23.2939 6.45864 23.3287 6.4 23.3707L6.51497 23.2711C6.55453 23.2393 6.57533 23.2263 6.55675 23.2518ZM6.43676 23.4704L6.47549 23.4552C6.45469 23.4777 6.44013 23.4936 6.42187 23.5135C6.40962 23.5131 6.41061 23.5016 6.43676 23.4704ZM13.9131 15.8849L14 15.8108C13.9508 15.8586 13.9274 15.8769 13.9131 15.8849Z" fill="##202020"/>
<path d="M11.6989 17.9664C11.4091 18.2492 11.623 17.9591 11.2167 18.3629L11.3334 18.2419C11.0242 18.514 10.5204 19.0315 10.1728 19.3745C10.2284 19.3522 9.983 19.6033 10.0492 19.5886C9.80653 19.8181 9.56649 20.0455 9.41799 20.1404C9.28012 20.2949 9.03404 20.4932 8.8587 20.6896C8.92179 20.5958 8.54066 20.9012 9.01325 20.4688C8.97457 20.5032 8.99399 20.4768 8.95564 20.5106C9.22605 20.1983 9.38012 20.1183 9.63224 19.8684C9.76745 19.7034 9.36134 20.0886 9.4972 19.9412C9.82579 19.6427 10.465 18.9415 10.502 19.0197C10.7349 18.7963 10.7536 18.7522 10.8113 18.6738C11.2348 18.3751 12.1277 17.3116 12.2031 17.3932C12.0679 17.5215 11.8543 17.7373 11.6437 17.9134L11.6989 17.9664ZM7.00704 22.2885C7.02541 22.2698 7.04378 22.251 7.06215 22.2322L7.00704 22.2885ZM3.61305 26.1189L3.7846 26.0507C4.48038 25.383 4.71292 25.1228 5.31266 24.5302C5.35126 24.4778 5.27431 24.5455 5.23523 24.5798C5.66132 24.1677 6.27919 23.5316 6.60867 23.2509C6.74194 23.1175 7.07658 22.7521 6.92864 22.8691C6.99817 22.8089 7.07698 22.7394 7.15015 22.6633C7.15152 22.6252 6.97739 22.8246 6.95797 22.8138C7.01606 22.7536 7.03556 22.727 7.05498 22.7192C6.93927 22.8027 7.09584 22.5539 6.63155 23.018C6.49465 23.2402 6.95934 22.7018 6.90068 22.8552C6.74669 23.009 6.74613 22.9729 6.72711 22.9802C6.53147 23.177 6.54864 23.1838 6.56999 23.1842C6.47982 23.2444 6.253 23.5111 6.12649 23.5923C5.7402 23.9692 6.18306 23.6073 5.9327 23.8552L5.74037 23.9504L5.33409 24.3728C4.71574 24.9542 5.33659 24.2042 4.62195 24.8609C4.7375 24.796 4.50415 25.1125 4.19425 25.4408C4.38739 25.2521 4.77279 24.9314 5.0055 24.6713C4.69496 25.0555 5.48945 24.1988 5.35198 24.4218C5.15932 24.5727 4.86957 24.8554 4.65676 25.0892L4.7346 25.0206C4.50165 25.2627 4.27088 25.3916 3.96171 25.7376C3.79684 25.8985 3.84108 25.8817 3.88113 25.8643C3.73569 25.9944 3.60281 26.1079 3.61305 26.1189ZM3.97879 25.7752L4.1924 25.5531C4.14856 25.6126 4.06694 25.6934 3.97879 25.7752ZM6.29691 4.8115L6.22665 4.74938C6.24333 4.76164 6.26952 4.78561 6.29691 4.8115ZM6.00619 24.6758L6.13116 24.5483C6.09039 24.5917 6.04873 24.6342 6.00619 24.6758ZM9.00495 22.01L9.20107 21.8373C9.13875 21.8982 9.07329 21.9558 9.00495 22.01ZM7.80862 6.30882L7.81507 6.3146L7.84166 6.34618L7.80862 6.30882ZM14.5864 16.2325C14.6156 16.1936 14.6464 16.1559 14.6787 16.1195C14.6783 16.1294 14.6433 16.1712 14.5864 16.2325ZM8.96885 22.0417L8.97917 22.0298L9.00495 22.0101L8.96885 22.0417ZM4.89648 26.0602L4.81066 26.1359C4.83813 26.1094 4.86676 26.0841 4.89648 26.0602ZM4.93782 25.7465C4.90744 25.7743 4.87811 25.8005 4.85434 25.82L4.93782 25.7465ZM0.399951 27.973L0.57714 27.8105C0.492695 27.893 0.439998 27.94 0.399951 27.973ZM4.51873 26.2263C4.50665 26.234 4.49448 26.2417 4.48578 26.2461C4.51084 26.2242 4.52478 26.2158 4.51873 26.2263ZM5.07077 3.87811L5.08092 3.88853L5.07955 3.89839L5.07077 3.87811ZM4.72694 3.39611L4.58126 3.24324C4.63161 3.29249 4.68019 3.34347 4.72694 3.39611ZM14.6612 13.1578C14.6092 13.1199 14.495 13.0229 14.5364 13.08C14.4602 12.9841 14.4903 12.9655 14.6612 13.1578ZM5.59863 5.00469C5.578 4.97126 5.54932 4.93271 5.52031 4.89407C5.57631 4.96381 5.62579 5.02457 5.59863 5.00469ZM5.52039 4.89407L5.43893 4.79138C5.46683 4.82502 5.49399 4.85925 5.52039 4.89407ZM15.1907 14.5695C15.1982 14.5786 15.2004 14.5932 15.1999 14.6131C15.1888 14.6065 15.1912 14.5913 15.1907 14.5695Z" fill="##202020"/>
<path d="M4.59604 3.27057C4.58092 3.23239 3.96639 2.5599 4.50968 3.0987C4.52417 3.04199 4.1812 2.73273 4.04649 2.57874C4.15888 2.67587 4.01736 2.50343 4.06145 2.52268C4.12833 2.59904 4.20265 2.69488 4.32273 2.81141C4.39286 2.84983 4.22545 2.65814 4.08029 2.52316C4.27033 2.67812 3.89056 2.27438 4.14756 2.50592C4.65398 3.04432 5.00795 3.42889 5.32147 3.85076C5.03415 3.54246 4.71374 3.19654 4.45697 2.96508L4.52844 3.09926C4.82946 3.34997 4.97866 3.54174 5.25126 3.81218L4.62928 3.21467C4.3202 2.95281 4.50422 3.15107 4.72237 3.38334C4.66696 3.32792 4.61535 3.27931 4.59604 3.27057ZM4.73701 3.95494L4.72593 3.94555C4.71817 3.93545 4.7078 3.92358 4.70353 3.91652L4.73701 3.95494ZM1.2001 28.7814L1.26374 28.7403C1.21514 28.7791 1.19812 28.7891 1.2001 28.7814ZM5.24588 4.17165L5.2454 4.17124C5.2492 4.17566 5.25015 4.1767 5.24588 4.17165ZM1.57481 28.3758C1.5722 28.3769 1.5695 28.3778 1.56531 28.3802C1.57085 28.3763 1.5718 28.3773 1.57481 28.3758ZM2.57743 28.6903C2.57648 28.6942 2.57703 28.6962 2.57284 28.7033C2.54347 28.7296 2.5555 28.7146 2.57743 28.6903ZM1.57869 28.3777C1.57774 28.3767 1.57766 28.375 1.57481 28.3759C1.57679 28.3758 1.58003 28.3746 1.57869 28.3777ZM7.98628 22.1115C7.98628 22.1115 7.97163 22.137 7.94536 22.1738C7.9304 22.1832 7.93918 22.1676 7.98628 22.1115ZM6.78855 23.4165L6.76924 23.4429L6.78855 23.4165ZM15.055 13.4618C15.1044 13.5109 15.1527 13.561 15.2 13.612C15.1502 13.5634 15.1018 13.5133 15.055 13.4618ZM1.56531 28.3802C1.54908 28.3901 1.52732 28.4054 1.49273 28.4321C1.53064 28.4025 1.55177 28.388 1.56531 28.3802ZM10.035 20.3474L9.99341 20.3826L10.0146 20.3581L10.035 20.3474ZM10.6611 19.6675C10.6355 19.6864 10.6217 19.693 10.6062 19.7025C10.8503 19.4808 11.2618 19.0359 11.3446 19.0178C11.2653 19.0965 10.8771 19.5284 10.9654 19.4773C10.7959 19.6327 10.5802 19.8973 10.488 19.98C10.7351 19.6936 10.4893 19.9233 10.2995 20.0934C10.1463 20.2678 10.3562 20.0888 10.2221 20.2368L9.84215 20.6145L10.1656 20.2781L10.035 20.3474L10.0713 20.3165C10.6404 19.7692 10.0728 20.2226 10.6611 19.6675ZM10.6061 19.7025C10.5695 19.7357 10.5366 19.7642 10.5096 19.7847C10.5625 19.7323 10.586 19.7149 10.6061 19.7025ZM12.8206 17.3545L12.9238 17.26L12.8206 17.3545ZM5.22316 24.2474C5.22261 24.2665 4.91835 24.6132 4.90022 24.583L5.18224 24.2819L5.22316 24.2474ZM12.0598 11.0455C12.0965 11.0812 12.1329 11.1175 12.1687 11.1545L12.186 11.1796C12.1604 11.1608 12.0936 11.0841 12.0598 11.0455ZM11.0765 19.3876C11.0136 19.4439 10.9834 19.4667 10.9653 19.4773C11.0056 19.4403 11.0442 19.4076 11.0765 19.3876ZM11.9826 11.0826C11.9299 11.0431 11.8519 10.9852 11.8332 10.9847C11.7392 10.8899 11.6859 10.8104 11.5949 10.7091C11.6991 10.8218 11.8262 10.9457 11.9826 11.0826ZM11.5875 10.7008L11.5948 10.7091L11.5875 10.7008Z" fill="##202020"/>
<path d="M5.3112 24.2113L5.40335 24.1288L5.3515 24.1678L5.56959 23.9337C5.60231 23.9044 5.63453 23.8746 5.66623 23.8442C5.65082 23.858 5.63693 23.8667 5.6273 23.8712L5.69665 23.7956C5.90133 23.6403 6.3664 23.2093 6.51008 23.0945C6.69133 22.9338 6.90613 22.7299 7.03504 22.5963C6.91423 22.7189 6.74816 22.8758 6.78259 22.8132C7.0144 22.5508 7.09243 22.3884 7.5534 21.9968L7.30353 22.2471L7.91806 21.7373C8.09208 21.5172 7.61136 21.9917 7.51407 22.0505C7.97673 21.6385 8.26827 21.2023 8.5171 21.0459C8.51782 20.9895 8.51934 20.8948 8.80815 20.6098C8.63349 20.8492 8.99999 20.4577 8.86458 20.662C8.97928 20.5785 9.17377 20.3309 9.21085 20.3351L9.17264 20.3505C9.61717 19.8149 9.84593 19.7231 10.0774 19.5356C10.6736 18.9585 10.9243 18.6702 11.4059 18.1949C11.4061 18.1573 11.4849 17.9753 11.6783 17.7847C11.7923 17.7204 12.2357 17.2979 12.312 17.2858C11.9833 17.6436 12.005 17.5403 11.7927 17.7388C11.656 17.9444 11.8106 17.7879 11.5979 18.0426C11.7728 17.8403 12.4647 17.2058 12.6389 16.9669L12.5619 17.0355C12.8712 16.6856 12.8544 16.5424 13.4499 16.0401L13.7309 15.7971C13.7151 15.8065 13.7099 15.8042 13.7003 15.8081C13.9124 15.5913 13.9801 15.5031 14.0574 15.4133C14.0778 15.3896 14.0986 15.3662 14.1199 15.3434C14.1487 15.3126 14.1781 15.2824 14.2082 15.2528C14.2773 15.1843 14.3697 15.0977 14.5145 14.9665C14.4698 15.007 14.4894 14.9803 14.4447 15.0208C14.5022 14.9554 14.5619 14.892 14.6237 14.8307C14.5098 14.715 14.4075 14.5997 14.3074 14.4853L14.1603 14.317L14.037 14.1785C13.886 14.0806 14.0401 14.2347 14.0975 14.3316C13.6138 13.8657 13.149 13.3055 12.8878 12.9769L12.567 12.6857C12.7369 12.879 12.9297 13.1299 12.8583 13.0907C12.6959 12.9165 12.741 12.9363 12.4986 12.7028C12.522 12.7608 12.6055 12.8771 12.6954 13.011C12.1759 12.5462 12.6466 12.8394 12.2505 12.5468C12.096 12.392 12.0315 12.2767 12.0353 12.2389L11.7288 11.9851C11.7242 11.9273 11.3809 11.5787 11.1589 11.3474C11.1427 11.3082 11.369 11.5021 11.4445 11.5985C11.4483 11.5607 11.2176 11.309 11.0626 11.1538C10.9507 11.1525 10.0582 10.1271 10.1758 10.3766C9.49917 9.65961 8.52898 8.67223 8.09377 8.18766C7.92729 8.05093 7.61834 7.74177 7.77711 7.95369C7.21772 7.39135 6.98615 7.044 6.41609 6.50088C6.36319 6.46163 6.66644 6.75382 6.62832 6.75253C6.28774 6.36528 5.94484 6.11209 5.39677 5.53093C5.49052 5.6272 5.50666 5.66645 5.51404 5.68551C5.53307 5.68616 5.30254 5.43434 5.16584 5.27888C5.07923 5.20134 5.2681 5.39517 5.21521 5.35608C4.10109 4.28922 3.34802 3.38009 2.26416 2.29458C2.57368 2.60454 2.65378 2.75888 2.64198 2.77737L2.33881 2.47363C2.24056 2.33787 2.01333 2.10939 1.83714 1.9045C1.80696 1.88795 1.70711 1.80242 1.79267 1.90604C1.47529 1.6241 1.25873 1.37245 1.02748 1.10157L0.849526 0.894017L0.826811 0.867527L0.813246 0.846287C0.803934 0.832477 0.793178 0.819636 0.788603 0.802999C0.773833 0.773198 0.766289 0.739682 0.76348 0.706005C0.761072 0.672085 0.764362 0.636953 0.774878 0.603599C0.781219 0.588012 0.784991 0.567257 0.792857 0.55918C0.796003 0.55358 0.798662 0.547716 0.800804 0.541655L0.802489 0.536729L0.809311 0.528572L0.822958 0.512177L0.850489 0.478984L0.85394 0.474785L0.854423 0.4743C0.835319 0.495621 0.849364 0.480034 0.84519 0.484718L0.845913 0.484234L0.847358 0.483184L0.852978 0.478984L0.864135 0.470343L0.885726 0.451768C0.894421 0.44773 0.902962 0.443366 0.911331 0.438684C0.929472 0.426085 0.942556 0.425924 0.955801 0.418817C0.958931 0.414537 0.97635 0.412841 0.992483 0.411145L1.04032 0.405411L0.986222 0.406057C0.978837 0.40646 0.965352 0.405572 0.960536 0.407187C0.94872 0.410492 0.936583 0.412496 0.924336 0.413164L0.897768 0.423824C0.87738 0.428912 0.859318 0.441753 0.83909 0.455079L0.831225 0.459924L0.827132 0.462347L0.825204 0.463559L0.824643 0.463882L0.824403 0.464043C0.827694 0.460328 0.816535 0.472604 0.831786 0.455644L0.830662 0.456856L0.812283 0.475916C0.799819 0.48895 0.787351 0.501979 0.774878 0.515004C0.752724 0.546581 0.721257 0.604649 0.714113 0.66635C0.709269 0.728713 0.720697 0.791268 0.747266 0.847821C0.764202 0.874311 0.776882 0.897651 0.799197 0.924302L0.860763 0.997473L0.987745 1.1485L0.742609 0.953619L1.09884 1.3798C0.846796 1.16271 0.687143 0.925352 0.63802 0.894905C0.643317 0.914692 0.658649 0.936497 0.676229 0.959999L0.703279 0.996018L0.729607 1.02566C0.76364 1.06434 0.79109 1.09826 0.785391 1.10771C0.726475 1.05255 0.684335 1.01742 0.644602 0.963633C0.624214 0.940616 0.612575 0.91558 0.601979 0.892321C0.591224 0.869143 0.580628 0.848225 0.577096 0.82545L0.563533 0.760357L0.561926 0.691871C0.559759 0.668047 0.56594 0.643011 0.569633 0.61539C0.57196 0.587528 0.58135 0.558534 0.592669 0.526229C0.553497 0.607475 0.538811 0.717311 0.570757 0.828681C0.58649 0.883679 0.611693 0.940616 0.651025 0.989396C0.660014 1.00143 0.670369 1.01621 0.679038 1.02614L0.704803 1.05546L0.757621 1.1149C0.909692 1.28438 1.06406 1.45176 1.22068 1.61699L2.10026 2.53977C2.16937 2.61819 2.05097 2.46273 2.04375 2.44383C2.23254 2.63757 2.36458 2.73497 2.59479 2.9863C2.71992 3.16034 2.46347 2.88955 2.34266 2.77309C2.33817 2.8104 2.39893 2.86904 2.5276 3.00472C2.58387 3.0056 3.26061 3.72244 3.46417 3.85925C4.15936 4.57625 3.27987 3.81814 3.97908 4.49743L4.21603 4.67203C4.5904 5.09805 5.08461 5.63907 5.54278 6.08649L5.4487 5.98974C5.39886 5.91237 5.51196 6.00928 5.56525 6.04894C5.91996 6.37852 6.18797 6.72563 6.42645 6.90169C6.78179 7.32706 7.40547 8.00481 7.83297 8.46992C7.99479 8.54858 7.28812 7.85032 7.12911 7.63783L7.5339 8.04544C7.28411 7.79306 7.20111 7.67757 7.07485 7.50264C7.43758 7.85193 7.51768 8.00611 7.84349 8.35532C7.82864 8.31752 7.88058 8.35572 8.03605 8.51151L8.05235 8.58379C8.0574 8.58436 8.07675 8.59954 8.12643 8.64598L8.70805 9.26534C8.56919 9.14944 8.53893 9.16762 8.38393 9.01231C8.45537 9.05156 8.32742 8.91637 8.17219 8.76114C8.28962 8.9158 8.00595 8.62474 7.99423 8.64307C8.30527 8.95449 8.68269 9.34174 8.87854 9.55406L8.97021 9.59484C9.27241 9.88583 9.57037 10.2143 9.77826 10.4086L9.72866 10.3313C10.0912 10.6804 10.424 11.0484 10.764 11.3402C11.0511 11.6879 11.4251 12.1132 11.6532 12.4041C11.7585 12.5766 12.6231 13.2966 12.9333 13.7023C12.961 13.7229 12.7132 13.4308 12.6039 13.2957C12.8463 13.5294 12.9939 13.7604 13.103 13.8004C12.5588 13.2764 13.1594 13.8013 12.9293 13.55C13.178 13.8015 13.4346 14.0723 13.5445 14.2079C13.1413 13.8015 13.6399 14.4003 13.2465 13.974C13.3832 14.1396 13.55 14.3275 13.7292 14.5185L13.903 14.7024C13.9459 14.7463 13.9901 14.7889 14.0355 14.8303L14.0123 14.8565C14.0423 14.8565 14.0334 14.8794 13.9686 14.9572C13.967 14.9588 13.8803 15.0023 13.8818 15.0008C13.8417 15.045 13.8894 15.01 13.9316 14.9815C13.9731 14.9537 14.0089 14.9324 13.9156 15.034C13.8816 15.0589 13.8656 15.0688 13.7973 15.1332C13.7365 15.1902 13.6766 15.248 13.6175 15.3069L13.2402 15.6895C12.992 15.9419 12.7655 16.1645 12.6511 16.2104C12.3996 16.5181 13.2088 15.7046 12.8221 16.1606C13.0912 15.9399 13.3998 15.5722 13.5146 15.5256C13.2654 15.7567 13.4563 15.6427 13.3022 15.7985L13.0139 16.0459L13.0717 15.9852C12.5912 16.4034 11.8967 17.1335 11.3189 17.7038C10.7996 18.1567 10.4159 18.4422 9.8383 19.0311C10.0302 18.8787 9.37492 19.5366 9.7781 19.2057C9.52694 19.4943 9.24015 19.7403 9.21984 19.7306C9.45149 19.4871 9.29834 19.642 9.49034 19.4339C9.33759 19.551 9.02808 19.8641 8.91258 20.0043C8.97029 19.9434 8.95126 19.9695 8.97005 19.9622C8.69963 20.2588 8.81658 20.0803 8.60467 20.2782C8.56534 20.369 8.16055 20.7388 7.98717 20.9396L7.68047 21.1753C7.85288 21.0497 7.42995 21.4449 7.40924 21.5099C7.19854 21.6881 7.0063 21.822 6.71742 22.1257C6.85186 22.0155 6.46586 22.4149 6.48496 22.4444C6.00231 22.9766 5.58139 23.2207 5.13694 23.7377C5.15749 23.7284 5.27011 23.6471 5.13614 23.7941C5.01911 23.8982 4.82888 24.0954 4.70823 24.2115L4.71265 24.2085L4.70583 24.2139C4.64675 24.2707 4.60734 24.3043 4.60012 24.2998C4.3744 24.4792 4.24613 24.5596 3.82858 24.9393C3.8301 24.8821 4.17638 24.5552 4.33058 24.418L4.48349 24.3192C4.56175 24.1564 4.84927 23.9658 4.92656 23.8597C4.63912 24.0503 3.96447 24.7533 3.52244 25.1375C3.73499 24.8461 4.27535 24.2902 4.7568 23.8152L4.56343 24.0431L4.81339 23.7927L4.6014 24.0653C4.83249 23.8223 5.04432 23.6244 5.25622 23.4078C5.00563 23.6588 4.94639 23.7953 5.0818 23.6468C5.33328 23.3391 5.38995 23.3726 5.60121 23.1566C5.48523 23.2784 5.33151 23.4341 5.4467 23.35C5.83335 22.8941 5.96852 22.8017 6.31487 22.3817C6.31367 22.4758 6.79664 21.9062 6.89168 21.8867L6.71838 22.0689L7.12212 21.7187C7.4314 21.3319 6.77665 21.9892 7.27784 21.4313C7.76025 20.9366 7.79613 20.9981 8.18262 20.6164C8.02915 20.7158 7.70198 20.9978 7.39383 21.3094L7.56769 21.1079C7.45283 21.1915 7.02877 21.6249 6.81719 21.8411C7.20095 21.518 6.66187 22.0167 6.52614 22.2028C6.47019 22.2058 6.70064 21.9823 6.41216 22.2298C6.66299 21.9785 6.70176 21.9438 7.01023 21.6134C6.33397 22.3181 6.29946 22.1437 5.72089 22.7706C6.00986 22.504 5.66254 22.9062 5.64207 22.9526C5.50858 23.0805 5.238 23.3402 5.12258 23.4428L5.18278 23.3053C4.81627 23.6409 4.77566 23.8447 4.33226 24.2115C4.25689 24.2412 4.67982 23.8462 4.60268 23.9148C4.02596 24.4468 3.88854 24.7091 3.42652 25.2319C3.38735 25.2482 3.36881 25.2181 3.17697 25.3704C3.25378 25.3393 3.13852 25.4789 3.3485 25.3015C3.19407 25.4763 2.98288 25.6549 2.82917 25.7915C3.1573 25.4343 2.65643 25.8989 2.57978 25.9485C2.40672 26.1304 2.65659 25.9172 2.7721 25.8144C2.6362 25.9636 2.50119 26.1673 2.38617 26.2139C2.40471 26.2439 2.84675 25.8784 3.11645 25.6198L2.94283 25.8023C3.07744 25.6917 3.09686 25.6651 3.26928 25.4841C3.11548 25.6765 3.15321 25.6802 3.2106 25.6571C3.2297 25.6308 3.1923 25.6639 3.21044 25.6387C3.34617 25.4897 3.46168 25.3869 3.44161 25.4329C3.60166 25.3372 3.2651 25.6513 3.18515 25.7643L2.96217 25.9757L2.12073 26.6126C1.79364 26.9172 1.67701 27.0849 1.45611 27.3387L1.36332 27.376C1.09218 27.6546 0.842382 27.9236 1.05333 27.7825C1.05389 27.7632 1.09225 27.729 1.15045 27.6678C1.16217 27.6636 1.17854 27.6526 1.19805 27.6373C1.20543 27.6332 1.21017 27.6317 1.21651 27.6286L0.70697 28.1092C1.24573 27.6486 0.782422 28.1351 0.915265 28.1009C0.796926 28.2126 0.678583 28.3243 0.560241 28.436L0.516335 28.4774L0.459103 28.5424L0.443372 28.5606C0.441767 28.562 0.43687 28.569 0.432214 28.5759L0.419371 28.5955C0.402996 28.6209 0.389591 28.6442 0.379156 28.6634C0.358046 28.7023 0.348495 28.7248 0.349619 28.7236C0.373246 28.6652 0.402355 28.6093 0.436549 28.5566C0.439177 28.5528 0.441826 28.549 0.444496 28.5452L0.45838 28.5251C0.465077 28.515 0.471742 28.5049 0.478369 28.4948L0.480135 28.4919L0.480375 28.4916L0.503491 28.4658L0.503974 28.4651L0.504937 28.4638L0.508389 28.4592L0.513366 28.4517C0.518423 28.4436 0.517138 28.4419 0.511198 28.4451C0.508228 28.4467 0.504134 28.4496 0.498997 28.4533L0.494985 28.4564L0.494663 28.4567L0.470662 28.4833L0.47018 28.4838L0.469136 28.4848L0.46713 28.4867L0.458302 28.4955C0.445459 28.5088 0.430849 28.5236 0.412869 28.544C0.379317 28.5906 0.344882 28.6477 0.317992 28.7052C0.300013 28.754 0.282916 28.8046 0.271759 28.8519C0.263813 28.9 0.258757 28.945 0.255546 28.9819C0.262196 29.0051 0.267159 29.0287 0.270395 29.0527C0.276896 29.0886 0.28091 29.1362 0.299371 29.1901C0.307478 29.2171 0.316789 29.2462 0.327384 29.2766C0.340709 29.3058 0.3562 29.3363 0.373056 29.3678C0.389756 29.4007 0.410172 29.4316 0.433899 29.4598C0.445779 29.4747 0.457979 29.4896 0.470261 29.5049L0.489365 29.5273L0.491773 29.5301L0.520026 29.5557L0.522998 29.5583L0.528937 29.5635L0.577738 29.6059C0.61129 29.6308 0.661619 29.6617 0.706248 29.6847L0.741083 29.702L0.770542 29.7125L0.830262 29.7318C0.869995 29.7455 0.910609 29.7518 0.951225 29.7558C1.03205 29.7681 1.11152 29.7585 1.18376 29.7472C1.2552 29.729 1.32118 29.7099 1.37295 29.6787L1.33803 29.6873C1.38595 29.6605 1.44054 29.634 1.48757 29.591C1.51165 29.5709 1.53766 29.5482 1.56022 29.5269L1.59826 29.4869L1.76651 29.3155C1.88095 29.2011 1.99725 29.0886 2.11535 28.9781C2.11535 28.9968 2.42221 28.7795 2.5752 28.6806C2.23583 29.0429 2.45456 28.8454 2.44372 28.8909C2.4784 28.853 2.54309 28.7871 2.55425 28.7831C2.61221 28.7407 2.49686 28.8621 2.49614 28.8812C2.30382 29.0617 2.11109 29.2472 1.94261 29.4019C1.86712 29.4718 1.78998 29.5399 1.71128 29.6061L1.65028 29.6558C1.6144 29.6846 1.57884 29.7102 1.54488 29.7325C1.47545 29.7749 1.4065 29.8006 1.35056 29.818C1.42874 29.7753 1.50266 29.7375 1.56271 29.6864C1.59248 29.6632 1.62708 29.6347 1.65028 29.6146L1.69129 29.5801C1.74652 29.5345 1.80415 29.4877 1.86218 29.4176C1.80618 29.4604 1.7519 29.5054 1.69948 29.5526C1.68551 29.5653 1.67131 29.578 1.65694 29.5912L1.63109 29.6148L1.58189 29.6561C1.51671 29.7131 1.43741 29.7559 1.35321 29.794C1.16982 29.8666 0.967527 29.8753 0.77865 29.8187C0.753687 29.8112 0.728723 29.8031 0.70384 29.7942C0.641314 29.7662 0.581431 29.7325 0.524923 29.6936C0.516093 29.6876 0.513524 29.6854 0.511678 29.6839L0.504214 29.6779L0.489203 29.6657L0.458943 29.6411L0.455172 29.638L0.453243 29.6363L0.417686 29.604L0.415919 29.602L0.401874 29.5863L0.3741 29.554C0.337418 29.5101 0.30162 29.465 0.275291 29.4114L0.248322 29.3706C0.228064 29.3407 0.210927 29.3088 0.197189 29.2753C0.181296 29.2391 0.166848 29.2015 0.156734 29.1731C0.147344 29.1446 0.143891 29.1248 0.143891 29.1248L0.13996 29.0827C0.138596 29.0558 0.133619 29.0175 0.136589 28.9718C0.14024 28.9196 0.146749 28.8677 0.156093 28.8163C0.171584 28.7596 0.186756 28.7048 0.213406 28.6425C0.238415 28.5902 0.267312 28.5398 0.299853 28.4919L0.315746 28.4691C0.322007 28.4602 0.321122 28.4624 0.324173 28.4585L0.37097 28.4055L0.405805 28.3669L0.408536 28.3644L0.413832 28.3593L0.423626 28.3503C0.428951 28.3454 0.434249 28.3404 0.439518 28.3354C0.448348 28.3272 0.453485 28.3226 0.453485 28.3226C0.435666 28.3374 0.421056 28.3486 0.408294 28.3578L0.403559 28.3611L0.40131 28.3627L0.401151 28.3628L0.368402 28.3992L0.368079 28.3995L0.367599 28.4L0.366474 28.4009L0.358447 28.4074L0.343678 28.4189L0.316547 28.4382L0.302663 28.4482C0.296482 28.4538 0.282033 28.4725 0.271358 28.4865C0.247999 28.5174 0.221994 28.5555 0.194382 28.6059L0.173913 28.6457L0.159625 28.6817C0.149993 28.7072 0.140119 28.7357 0.130406 28.7676C0.0975771 28.893 0.0624199 29.0889 0.160186 29.345C0.143811 29.3156 0.105043 29.236 0.0897923 29.1186C0.0828896 29.0595 0.0755033 28.992 0.084734 28.9184C0.0880775 28.8801 0.093194 28.8421 0.100066 28.8043C0.109778 28.7657 0.121338 28.726 0.134742 28.686C0.150555 28.619 0.236039 28.4732 0.279865 28.4198L0.317833 28.3758L0.363584 28.3244L0.374181 28.3143L0.395372 28.2939C0.450116 28.2416 0.503354 28.1878 0.555023 28.1324L0.688107 28.0608C0.631517 28.083 1.05557 27.6496 0.728402 27.9315C0.602674 28.0458 0.47692 28.1601 0.351143 28.2743L0.340227 28.2842L0.334929 28.289L0.332281 28.2913L0.331639 28.292L0.291664 28.3364L0.290462 28.3377L0.254904 28.3772L0.23917 28.3947C0.238769 28.3942 0.227532 28.4101 0.222315 28.4175L0.203531 28.4449C0.179611 28.4807 0.160428 28.5136 0.145498 28.5409C0.115559 28.5964 0.102716 28.6282 0.104081 28.6259C0.102395 28.6284 0.114995 28.5919 0.14044 28.5371C0.154923 28.506 0.170698 28.4756 0.187719 28.4458L0.231385 28.3735L0.265738 28.3148L0.307719 28.2679L0.30828 28.2672L0.309245 28.2658L0.311171 28.2632L0.314703 28.2583C0.31687 28.2553 0.318875 28.2527 0.3204 28.2504C0.323531 28.246 0.325459 28.2436 0.325459 28.2436L0.307158 28.2614L0.30499 28.2636L0.260841 28.3126L0.256269 28.3179L0.246154 28.33C0.23885 28.3387 0.230742 28.3485 0.221751 28.3591L0.214929 28.3673L0.211477 28.3715C0.210595 28.3724 0.20931 28.374 0.204815 28.3803C0.157046 28.4473 0.115838 28.5188 0.0817652 28.5937C0.0629826 28.6397 0.0509424 28.6804 0.0374575 28.7266L0.019639 28.795C0.0157862 28.8181 0.0126553 28.8416 0.00984573 28.8652C-0.0198536 29.0542 0.0225286 29.2452 0.0718937 29.3789C0.100308 29.4445 0.129043 29.4976 0.149591 29.5339C0.169497 29.5708 0.18499 29.5888 0.18499 29.5888L0.176642 29.5759C0.171184 29.5678 0.164281 29.5556 0.156897 29.5403C0.141726 29.5101 0.122462 29.4691 0.105445 29.4277C0.0893106 29.3902 0.076704 29.3512 0.0677977 29.3114L0.0555182 29.2573C0.0651503 29.2937 0.0758247 29.3288 0.0872231 29.3625C0.0993433 29.3958 0.115397 29.4268 0.130247 29.4572C0.145498 29.4875 0.161311 29.5164 0.177365 29.544C0.19406 29.5709 0.213324 29.595 0.231544 29.6189C0.250006 29.6426 0.268628 29.665 0.287169 29.6863L0.301056 29.7021L0.307959 29.7098L0.309725 29.7116L0.31061 29.7126L0.356762 29.7547L0.358369 29.756L0.370648 29.7664C0.386943 29.7798 0.402273 29.7924 0.416561 29.8043C0.497872 29.8651 0.621406 29.9315 0.684256 29.9487C0.753045 29.9698 0.813165 29.9876 0.866463 29.9925C0.9737 30.0043 1.04891 30.0013 1.10759 29.9897C1.16626 29.979 1.20872 29.9709 1.24934 29.9537C1.29019 29.9381 1.33065 29.9214 1.38411 29.8983C1.43508 29.8707 1.50339 29.8381 1.58598 29.7765C1.60789 29.7592 1.62943 29.7415 1.6506 29.7234L1.68551 29.6927L1.7035 29.6763L1.71192 29.6679L1.7828 29.5984C1.85266 29.5318 1.92349 29.4663 1.99527 29.4018C2.2441 29.2267 2.47535 29.0021 2.88022 28.5764C2.57231 28.8694 2.82307 28.5808 2.68862 28.6724C2.97855 28.3492 3.11251 28.2766 3.28565 28.1318C3.34377 28.0336 3.38293 27.9617 3.11291 28.2391C3.03738 28.2318 3.4791 27.885 3.46136 27.8171C4.36678 26.9087 4.32351 27.2267 5.32718 26.1097L5.27035 26.1323C5.9629 25.4785 6.32956 25.0682 6.96456 24.4566L7.4102 23.9202C7.29406 24.0235 6.96713 24.2867 7.08335 24.1273C6.88959 24.4113 6.6215 24.6499 6.3888 24.9318C6.35115 24.9466 6.44732 24.8331 6.48568 24.7802C6.33125 24.9364 6.27345 25.0344 6.06139 25.2324C6.06219 25.2134 6.2741 24.9779 6.10072 25.1416L5.84988 25.4488C5.46484 25.8101 5.60145 25.5676 5.177 26.0198C5.28247 25.9625 5.48354 25.8309 5.6586 25.6665C5.4642 25.8728 5.93946 25.4134 5.77178 25.6114C5.44814 25.8646 5.33777 26.033 4.93274 26.3952C4.98267 26.3551 5.00153 26.3502 5.09794 26.2577L4.55814 26.8314C4.67436 26.6721 4.07653 27.2695 4.09692 27.186C4.67541 26.5779 4.52049 26.7718 5.17676 26.0758C4.9789 26.2607 4.70101 26.4762 4.55645 26.5627C4.55179 26.5698 4.54305 26.5807 4.5229 26.6021C4.38893 26.6745 4.48565 26.5605 4.42955 26.5081C4.77574 26.2373 4.94968 25.9984 5.33472 25.6556C5.43257 25.6168 5.16199 25.9055 4.97392 26.0792L5.31329 25.7773L5.23672 25.8269L6.03819 25.0006C5.88287 25.1537 5.81344 25.1889 5.72033 25.2567C5.82388 25.1501 5.91971 25.0379 6.02141 24.9183C6.02647 24.9701 6.06107 24.9754 6.16268 24.8722C6.678 24.3402 6.94289 24.0225 7.10326 23.7962L7.16603 23.7371C7.10752 23.8543 7.58888 23.4165 7.78024 23.2835C7.74227 23.2615 8.03132 22.9948 8.16649 22.8279C8.28103 22.782 8.22163 22.9372 8.06648 23.1498C7.68199 23.4734 7.83699 23.3168 7.62556 23.4398L7.02958 23.9797L7.18353 23.88C6.91303 24.1765 6.60536 24.4133 6.66171 24.4283C6.83485 24.302 7.06698 24.0393 7.23899 23.9142L7.06514 24.1155C7.43003 23.8189 7.20047 23.9114 7.62428 23.5342C7.50765 23.7125 7.66265 23.4999 7.85401 23.3483C7.73786 23.5078 7.14219 24.0471 7.3138 23.9782C7.54393 23.7919 7.95209 23.2144 8.27814 22.9895L8.25887 22.9972C8.65756 22.5826 8.82942 22.4689 8.99975 22.3349C9.15547 22.1445 9.41714 21.9286 9.60601 21.7422L9.58642 21.7317L9.85644 21.4727C9.70361 21.5716 9.54806 21.7844 9.31753 22.0084L9.31785 21.9521C9.08973 22.2481 8.86522 22.3728 8.6387 22.5525C8.95769 22.2802 9.46442 21.7081 9.58803 21.6931L9.7423 21.4814L9.83975 21.4038C9.95453 21.2458 9.78268 21.3521 9.5129 21.6108C9.47421 21.664 9.4547 21.6905 9.47445 21.6824C9.33968 21.793 9.20571 21.8842 8.91627 22.1884L9.08884 22.0444C8.72242 22.4171 8.37663 22.7434 8.22316 22.8428C8.74345 22.2959 9.26415 21.7671 9.76486 21.2658C9.97508 21.1809 10.1852 21.0406 10.3188 21.0239C10.6647 20.6976 11.1278 20.2478 11.3974 19.9334L11.3591 19.9487C11.4812 19.8153 11.61 19.6883 11.7451 19.5681C11.8798 19.4017 11.6114 19.6404 11.7077 19.5268L12.2073 19.0635C12.1512 19.0667 11.7472 19.473 11.5535 19.6642C11.5919 19.6299 11.6694 19.5609 11.6495 19.5881C11.4372 19.8235 10.9765 20.1964 10.9173 20.3331C10.8018 20.4358 11.1663 20.1394 10.8003 20.5117C10.5683 20.7742 10.4537 20.8203 10.4165 20.8346C10.3974 20.8236 10.7827 20.4249 10.6289 20.5431C10.8226 20.352 10.9184 20.2946 11.1492 20.0333C10.9573 20.2227 10.6687 20.4519 10.5907 20.5772C10.1868 20.9273 10.1704 20.8022 10.3438 20.6199C10.3236 20.6846 11.0566 19.9573 10.5925 20.4822C10.8423 20.288 11.247 19.8813 11.5543 19.6076L11.5355 19.6152L11.9021 19.2604C11.8436 19.3034 11.7282 19.4061 11.7097 19.3947L12.248 18.934C11.9407 19.1889 12.4031 18.7403 12.5188 18.5999C12.595 18.5693 12.8064 18.3905 12.6328 18.5915C12.4396 18.8193 12.4982 18.7018 12.3057 18.8921L12.612 18.6567L12.6317 18.6298L12.824 18.496C13.19 18.1236 12.5944 18.5885 13.0949 18.1432L13.0739 18.2455C13.6139 17.6902 14.2696 16.939 14.6741 16.5696C14.5447 16.6536 14.4609 16.6636 14.5853 16.4944C14.4259 16.6687 14.0902 17.0036 13.8478 17.2399C13.8091 17.2932 14.1936 16.988 14.4441 16.7184C14.3847 16.9113 13.7522 17.3342 13.7888 17.4322C13.1518 18.1203 13.2316 17.863 12.7104 18.4666C12.6727 18.4444 12.5364 18.6123 12.4806 18.6154C12.5977 18.3993 13.2315 17.8631 13.5782 17.4799C13.5404 17.5135 13.4643 17.5811 13.4447 17.5895C13.6959 17.319 13.81 17.2177 14.0028 17.046L13.9834 17.0726C14.33 16.7827 14.1574 16.8525 14.3311 16.6514C14.4079 16.583 14.659 16.313 14.6392 16.3771L14.949 16.0082L14.9661 16.0582C15.1588 15.8681 15.1786 15.804 15.3719 15.6504L15.4098 15.6724L14.9463 16.1596C15.1963 15.9278 15.0419 16.121 15.3121 15.8618C15.1483 15.9936 15.1963 15.937 15.2854 15.8403C15.33 15.7918 15.3848 15.7335 15.4285 15.6837C15.4475 15.6623 15.4658 15.6403 15.4832 15.6176C15.4891 15.6098 15.4946 15.6017 15.4997 15.5933C15.5051 15.5866 15.5093 15.5791 15.5123 15.5711C15.558 15.5298 15.6038 15.4884 15.6467 15.4451L15.7363 15.3499L15.7815 15.3017C15.7966 15.2855 15.8062 15.267 15.8189 15.2496L15.7858 15.2943L15.745 15.3353L15.7802 15.2863L15.8053 15.2392C15.8211 15.2091 15.8389 15.1835 15.8478 15.1552L15.8801 15.0778C15.8891 15.0525 15.895 15.0267 15.9029 15.0011C15.9211 14.9501 15.9259 14.8942 15.9332 14.8277C15.9321 14.7943 15.9302 14.758 15.9267 14.7179C15.9211 14.678 15.9089 14.6353 15.8979 14.5873L15.932 14.7077C15.9383 14.7479 15.9438 14.7874 15.9486 14.8265C15.9492 14.8655 15.9475 14.9041 15.9459 14.9425C15.9427 14.9807 15.9337 15.0176 15.9277 15.0553C15.9098 15.1288 15.8857 15.2022 15.8449 15.2699C15.8288 15.3058 15.801 15.3379 15.7743 15.3715L15.6906 15.4749L15.5352 15.6262C15.5002 15.6585 15.4662 15.6885 15.4272 15.7221L15.5175 15.6443C15.529 15.6348 15.5656 15.6002 15.5954 15.5722L15.6954 15.4781C15.7654 15.3971 15.8492 15.3125 15.9004 15.2137C15.9486 15.1129 15.9852 15.0042 15.9948 14.8989C16.0192 14.6868 15.9509 14.5131 15.92 14.4387C15.8765 14.3288 15.7865 14.246 15.7139 14.1623C15.6427 14.0844 15.5529 13.985 15.5206 13.9606C15.431 13.8796 15.3411 13.8023 15.2438 13.7079C15.4212 13.8984 15.3664 13.8888 15.3618 13.9215C15.3596 13.9378 15.3699 13.9646 15.428 14.0322L15.5942 14.2177L15.7414 14.3777C15.7654 14.4094 15.7845 14.4457 15.8083 14.4826C15.8251 14.5231 15.8457 14.5651 15.8601 14.6121C15.8618 14.5822 15.8134 14.4625 15.7784 14.4253C15.8487 14.4868 15.9317 14.668 15.9109 14.8802C15.9041 14.9858 15.8638 15.092 15.8143 15.1867C15.7611 15.2792 15.6794 15.3545 15.6153 15.424L15.4692 15.554C15.489 15.5142 15.4417 15.5487 15.435 15.5446C15.431 15.5434 15.4263 15.5434 15.4435 15.5214C15.4618 15.4984 15.498 15.4575 15.5621 15.3879L15.6497 15.2774C15.6237 15.3155 15.6339 15.3141 15.67 15.2823C15.6789 15.2742 15.69 15.2645 15.7015 15.2526L15.7344 15.209C15.746 15.1924 15.7605 15.1752 15.7723 15.1544C15.7825 15.1327 15.7936 15.1096 15.8053 15.0851C15.8463 14.9857 15.8777 14.8509 15.8543 14.7104C15.8313 14.5701 15.7703 14.4329 15.6602 14.3336L15.6641 14.3859C15.6667 14.4109 15.6645 14.4362 15.6636 14.4366C15.6663 14.4354 15.632 14.3995 15.5812 14.3458L15.3982 14.1524L15.1998 13.9584L15.2341 13.9975C15.0567 13.8799 14.8225 13.5715 14.5352 13.3183C14.3575 13.1056 13.5977 12.3681 13.9681 12.6416C13.6968 12.428 13.5219 12.1766 13.2644 11.9047L13.6126 12.2164C13.2573 11.7911 13.3476 11.9258 13.0899 11.5587C13.0456 11.54 12.9656 11.4809 13.0153 11.5581C12.4903 11.0348 11.7308 10.2974 11.4628 9.95019C11.0924 9.58168 10.9791 9.57934 10.4841 9.03743C10.382 8.92129 10.6129 9.07854 10.2573 8.7479C10.2308 8.72827 10.5519 9.11447 10.1745 8.7273C9.93936 8.41783 9.51723 8.10617 9.1956 7.71932C8.99613 7.54496 8.67771 7.21456 8.71632 7.31123C9.01813 7.60165 9.42998 8.02807 9.47991 8.10593C9.45639 8.04754 9.70658 8.3004 9.5023 8.06805C9.97026 8.49528 9.77425 8.37737 10.1894 8.76526C10.2055 8.80459 9.95188 8.59009 9.87635 8.49342C9.83533 8.53089 10.6469 9.30669 10.2441 8.99584C9.81286 8.56877 9.76743 8.35887 9.35549 8.02726C9.48031 8.20074 9.73291 8.41436 9.8806 8.64566L9.56026 8.35491L9.36737 8.10399L9.37484 8.12305C8.80092 7.61764 8.91739 7.58162 8.45553 7.07751C8.76159 7.33086 8.45882 6.94434 8.68526 7.13873C8.36828 6.80979 8.12667 6.57711 8.08534 6.61435C8.65572 7.25244 8.07811 6.69034 8.59592 7.28991C8.49053 7.21206 8.67121 7.48091 8.33505 7.15141C7.9891 6.74712 8.47953 7.23112 8.11953 6.84298C8.09401 6.82432 8.0676 6.80486 8.07482 6.82376C7.92368 6.63074 7.86741 6.62977 7.68231 6.39831L7.72365 6.45573C7.44408 6.22217 7.47073 6.14698 7.22447 5.95138C7.34166 6.01082 7.10037 5.77855 6.98198 5.62292C7.21628 5.83653 7.37874 5.91616 7.817 6.36172C7.84726 6.43837 7.80231 6.41882 7.97216 6.61208L7.68865 6.3211C7.74669 6.38708 7.78779 6.44038 7.8398 6.50201L8.12684 6.76674C7.79445 6.39936 7.9789 6.5356 7.85465 6.36245C7.52547 6.05144 7.59763 6.09117 7.38942 5.89678C7.37593 5.95097 6.71653 5.33557 6.32739 4.98765L6.49925 5.15781C6.74495 5.44775 6.2875 5.0013 6.2684 5.00065L6.09068 4.78801C6.12504 4.82718 6.16774 4.88605 6.08001 4.80739C5.82291 4.53619 5.87164 4.51794 5.6151 4.24707C5.57673 4.24594 5.7709 4.49783 5.5976 4.34317C5.52512 4.30279 5.30246 4.1655 4.96967 3.79755C4.95201 3.76549 4.8654 3.67035 4.76354 3.56173C4.7771 3.57739 4.79476 3.59653 4.79998 3.60453L4.5477 3.3914C4.71369 3.62214 4.96236 3.77865 5.12932 4.01052L5.11607 4.05776C5.27059 4.21347 5.46757 4.43783 5.54856 4.55065C5.30767 4.31862 5.26593 4.26072 5.0086 3.9892C4.95265 3.97119 5.1241 4.1722 5.14883 4.2012L5.12675 4.14434C5.46604 4.43556 5.5679 4.64627 5.96482 5.03441C6.02511 5.09264 5.99123 5.05412 5.98377 5.03514C6.27145 5.3833 6.62222 5.65579 6.89176 6.00427L6.80715 5.88733L7.76539 6.99441L7.75696 7.00951C7.70447 6.97083 7.85866 7.12516 7.94591 7.20334L7.94567 7.20277L8.47255 7.80816C8.39967 7.75234 8.33004 7.69234 8.26401 7.62847C8.21353 7.54997 7.82575 7.18258 7.90859 7.20309C7.71587 7.04706 7.46262 6.73791 7.32311 6.62129C7.57588 6.83523 7.19051 6.42859 7.16699 6.3702C7.06899 6.31133 6.82369 6.02172 6.82754 6.07906C6.77473 6.03981 6.9595 6.1763 7.04258 6.29186C7.26163 6.56201 6.57454 5.86472 6.85467 6.1939C6.48713 5.78662 5.97004 5.28267 5.59616 4.8573L5.82998 5.07075C5.64897 4.89647 5.23584 4.46884 5.19169 4.45018C5.3202 4.5857 5.47431 4.74012 5.63733 4.9148C5.61558 4.95316 5.23303 4.5076 5.19578 4.50736L4.7564 3.96561L4.97215 4.17939C4.85544 4.02538 4.3858 3.59702 4.0498 3.26735C4.19918 3.50011 4.54939 3.77211 4.88202 4.13998C5.12009 4.41077 4.68592 4.02215 4.91613 4.27356C4.84429 4.2205 4.68881 4.0618 4.62187 3.97377L4.51985 3.88598C4.69668 4.13893 5.18503 4.61356 5.47254 4.9673C5.44846 4.93507 5.42824 4.90624 5.42374 4.89292C5.68421 5.12591 5.93352 5.37797 6.16349 5.62922C6.02487 5.51341 5.98265 5.45485 5.91442 5.37748C5.8962 5.37765 6.1187 5.60951 6.19415 5.70594C5.96009 5.49233 6.13058 5.68615 5.98321 5.55031C6.11966 5.70546 6.23998 5.82127 6.42091 5.99555C6.52686 6.07381 6.3644 5.89961 6.40156 5.89993C6.57285 6.09457 6.7004 6.13406 6.94594 6.42407C6.58313 6.07462 6.9994 6.55854 7.10928 6.69406L7.04844 6.6355C7.13938 6.77054 7.2341 6.86753 7.33162 6.92592C7.19517 6.77078 7.04844 6.6355 7.11177 6.65497C7.20681 6.75253 7.30152 6.84976 7.4037 6.96574L7.32071 6.85033L7.79316 7.3349C7.84927 7.43044 7.94808 7.58494 7.98549 7.68015C8.11753 7.77763 8.26217 7.95272 8.36403 8.0687L8.32165 8.00974C8.54864 8.20478 9.00296 8.68975 9.02527 8.74677C9.19086 8.88261 8.07193 7.56765 9.11862 8.65284C9.52237 9.05948 9.31544 8.96111 9.52711 9.21212C9.52711 9.21212 9.51964 9.19346 9.54613 9.21284C9.72689 9.38672 9.72384 9.42549 9.8603 9.58063C9.746 9.48234 9.59196 9.32817 9.55046 9.27042C9.5808 9.34699 9.92066 9.63886 10.0381 9.79327C9.89754 9.58087 10.3933 10.1235 10.2749 9.96804C10.6492 10.2989 10.9972 10.7052 11.1558 10.9172C11.4388 11.1127 11.5683 11.3441 11.976 11.7131C11.9152 11.6545 11.8138 11.5392 11.7258 11.4602C11.5332 11.2098 12.1417 11.8491 11.8277 11.4813C11.896 11.5589 11.8179 11.5015 11.7479 11.4222C11.6207 11.2878 11.5104 11.1519 11.5559 11.172L11.8963 11.4646L11.7929 11.3469L12.3062 11.7941C12.3136 11.8129 12.2617 11.7748 12.2351 11.7551C12.8056 12.2987 13.4215 12.957 13.9128 13.442C13.9188 13.5278 14.2098 13.8377 14.5423 14.1818L14.7957 14.4432L14.9212 14.5731L14.9685 14.623L14.9954 14.6528C15.0305 14.6914 15.0638 14.7283 15.0706 14.7717C15.0793 14.8138 15.0685 14.8533 15.0494 14.8791C15.0773 14.8524 15.1021 14.8246 15.1246 14.8094C15.1476 14.794 15.1706 14.7917 15.1869 14.8187C15.1891 14.7827 15.1902 14.7226 15.154 14.6632C15.1365 14.6335 15.1112 14.6043 15.0843 14.572C15.0703 14.5558 15.0566 14.5405 15.0398 14.5232C15.016 14.4987 14.9912 14.4743 14.9655 14.4501C14.9209 14.4309 14.6609 14.1983 14.8045 14.372C14.2639 13.81 14.9136 14.4119 14.7809 14.219L14.9317 14.3764L15.066 14.5203C15.123 14.5886 15.185 14.6428 15.2121 14.713C15.2245 14.7462 15.2298 14.7816 15.2276 14.8169C15.2253 14.8522 15.2156 14.8867 15.1991 14.918C15.1689 14.979 15.1122 15.0157 15.0669 15.0524L15.0079 15.0986L14.9151 15.1798L14.731 15.3446L14.7307 15.3638L14.4227 15.638C14.6546 15.394 14.5979 15.3606 14.308 15.684L14.3474 15.6488C14.1919 15.8432 13.807 16.1858 13.5376 16.4628L13.3269 16.6225C13.0571 16.9 13.0937 16.9604 13.0341 17.0788C12.6099 17.5124 12.3234 17.7208 11.9961 18.0026C11.8799 18.162 11.2446 18.8113 11.6095 18.4957C11.2053 18.865 11.1699 18.6728 10.5712 19.4015L10.7632 19.2492C10.1266 19.8812 9.18428 20.7478 8.91434 21.0626C9.22072 20.9014 8.19892 21.9322 8.15822 22.1175C8.17323 22.0695 7.9301 22.303 7.88675 22.3291C7.84309 22.3899 7.76459 22.4853 7.65775 22.5629C7.88997 22.3003 7.40996 22.6624 7.91027 22.2172C7.62251 22.4078 7.27672 22.6784 6.75651 23.2068L6.79431 23.229L7.19878 22.8037C7.17904 22.8679 7.3903 22.6521 7.48774 22.5746C6.73523 23.3655 7.65847 22.5437 6.86808 23.3311C6.77272 23.3879 6.82995 23.3464 6.61788 23.5444C6.71501 23.4487 6.75297 23.452 6.59846 23.6083L6.4258 23.734C6.20105 24.0605 6.91287 23.3093 6.71364 23.5804C7.04081 23.2984 7.57933 22.7819 7.51953 22.9189C7.03744 23.4319 7.00188 23.2958 6.50069 23.835L6.46184 23.907C6.2684 24.0793 6.21261 24.0825 6.09679 24.1669C6.09703 24.1854 6.0577 24.239 5.94315 24.3595C5.5968 24.6306 5.38481 24.8287 5.05868 25.0723C5.84635 24.3432 5.67586 24.3925 6.4844 23.6355C6.34963 23.7461 5.79113 24.2898 5.71608 24.2821L5.7534 24.305C5.4841 24.5446 5.21504 24.7843 4.90618 25.1148L5.1176 24.936C4.67436 25.34 4.46085 25.6882 4.07781 25.9734C4.19284 25.8523 4.28932 25.7571 4.36654 25.6886C4.13577 25.8939 3.86599 26.1714 3.63474 26.4142L3.09646 26.8564C3.11556 26.867 2.80669 27.1797 2.97983 27.0531C2.65057 27.4303 2.44003 27.5523 2.22925 27.7494C1.90055 28.1442 2.55562 27.4496 2.63227 27.4556C2.14946 27.9692 1.61062 28.4863 1.30344 28.7411C1.39872 28.6331 1.4427 28.5784 1.43034 28.5763C1.42472 28.6009 1.22213 28.7998 1.11088 28.9123L1.0148 28.9699L1.01078 28.9746L1.00974 28.9757L1.02009 28.9861H1.02025L1.02082 28.9865L1.0225 28.9881C1.02405 28.9898 1.02545 28.9916 1.02668 28.9936C1.02684 28.994 1.02595 28.9919 1.0266 28.9931C1.02828 28.9965 1.02596 28.9911 1.02716 28.9941C1.02836 28.9984 1.03038 29.0024 1.0331 29.0059C1.03398 29.0067 1.03783 29.0121 1.03928 29.0117C1.04049 29.0117 1.04169 29.0119 1.04281 29.0124L1.04562 29.0135C1.04795 29.0123 1.04506 29.0181 1.05252 29.0112C1.04891 29.015 1.04795 29.0157 1.04803 29.0151L1.04682 29.0153L1.04498 29.0161C1.04353 29.0162 1.04434 29.02 1.04217 29.0187C1.03807 29.0158 1.03823 29.0213 1.03422 29.0167C1.02973 29.0185 1.02467 29.0066 1.02299 29.0066C1.02291 29.0042 1.0229 29.0028 1.0225 29.0027C1.02347 29.0027 1.01929 29.0028 1.02419 29.0034C1.03269 29.0048 1.04051 29.0089 1.0465 29.0151L1.05084 29.0202C1.05132 29.0212 1.05573 29.0265 1.05028 29.0216L1.01046 28.9888L0.990396 28.9729L0.990234 28.9728L1.01945 28.9994L1.01953 28.9993L1.01961 28.9991L1.01969 28.999L1.01977 28.9986V28.9982C1.01945 28.9978 1.01817 28.9984 1.01568 28.9994C1.0156 28.9986 1.00958 29.0011 1.00492 29.0008C1.00171 29.0037 1.00517 29.0037 1.00187 29.0075C1.00067 29.0105 1.0042 29.0108 1.00252 29.0154L1.00235 29.0163L1.00227 29.0167L1.0022 29.0168C0.989995 29.0056 1.02965 29.0418 0.974663 28.9918L0.974905 28.992L0.975948 28.9929L0.983974 29L0.999866 29.0142L1.03213 29.0426L1.03575 29.0457L1.0347 29.0438L1.03222 29.0402C1.03046 29.0379 1.02838 29.0359 1.02604 29.0343C1.02175 29.0313 1.01682 29.0295 1.01167 29.0289C1.01666 29.0313 1.02218 29.0325 1.02775 29.0324C1.03332 29.0322 1.03876 29.0307 1.04361 29.028C1.04586 29.0272 1.04915 29.0273 1.04987 29.0235C1.05035 29.023 1.05093 29.0226 1.05158 29.0222C1.05223 29.0219 1.05293 29.0218 1.05365 29.0217C1.05308 29.0234 1.05798 29.0184 1.0628 29.0135L1.0762 28.9999L1.17766 28.8982C1.24139 28.8352 1.29654 28.7825 1.3398 28.7464C1.2517 28.8297 1.16534 28.9148 1.08078 29.0017L1.05927 29.024C1.05622 29.0264 1.05621 29.0253 1.05493 29.0264C1.05292 29.0275 1.05276 29.0312 1.05124 29.033C1.04899 29.0333 1.04747 29.0346 1.04626 29.037C1.0457 29.0409 1.04273 29.0396 1.04112 29.0411C1.03912 29.0418 1.03799 29.0463 1.03559 29.0465C1.03101 29.0456 1.02668 29.0543 1.02154 29.0526C1.01855 29.0535 1.01575 29.0549 1.01327 29.0568C1.01071 29.056 1.00798 29.056 1.0054 29.0567C0.992723 29.0582 1.00974 29.0612 1.00974 29.0724L1.01022 29.0765C1.01038 29.0781 1.0046 29.073 1.00203 29.0715L0.982048 29.0574L0.961901 29.0432L0.951708 29.0361L0.94665 29.0325L0.944082 29.0307L0.943438 29.0302C0.990956 29.0734 0.956603 29.0421 0.967198 29.0519L0.967118 29.0518L0.966878 29.0515C0.964538 29.0486 0.961641 29.0462 0.958368 29.0445C0.954034 29.043 0.950262 29.0408 0.949138 29.037C0.934048 29.0275 0.930596 29.0075 0.927305 28.986C0.924576 28.9763 0.930997 28.9596 0.930355 28.9551C0.930194 28.9568 0.92907 28.9583 0.927224 28.9591C0.926108 28.9596 0.924911 28.9598 0.923695 28.9599H0.921526C0.920563 28.96 0.924736 28.9555 0.926181 28.9536L0.951225 28.9227L0.964068 28.9069L0.97057 28.8988L0.972174 28.8969L0.952589 28.9188L0.953072 28.9183L0.953954 28.9173L0.957645 28.9137C1.04694 28.8246 1.13744 28.7368 1.22911 28.6502C1.22967 28.6309 1.07556 28.7496 1.23007 28.5936C1.59585 28.2401 1.3638 28.5397 1.49745 28.4487C1.35337 28.5816 1.25215 28.6832 1.17004 28.7749C1.12902 28.8208 1.09274 28.8642 1.05814 28.9078L1.00733 28.9735L1.00725 28.9736L1.03237 28.9456L1.03222 28.9458L1.03189 28.9465L1.03117 28.9476L1.02981 28.9498L1.02708 28.9543L1.0217 28.9632L1.01094 28.9813C1.0046 28.9926 0.994571 29.0074 0.991118 29.0163C0.987266 29.0199 1.01086 29.0005 1.03085 28.9845C1.03587 28.9804 1.04093 28.9763 1.04602 28.9723L1.05309 28.9667L1.05477 28.9653L1.05517 28.965L1.05541 28.9648L1.05549 28.9647L1.05557 28.9647L1.02828 28.995L1.02917 28.9945L1.03246 28.9924L1.04642 28.9832C1.04939 28.9638 1.22229 28.7889 1.26547 28.7296L1.34229 28.717C1.2861 28.7019 1.5363 28.3956 1.76763 28.1897C1.57314 28.4373 1.63133 28.3761 1.61199 28.4772C1.95698 28.2074 1.92014 28.0912 2.30438 27.7864C2.26721 27.8009 1.95866 28.094 2.2091 27.8245C2.42205 27.6071 2.42125 27.6637 2.574 27.5278C2.38224 27.661 2.40182 27.597 2.19104 27.7383C1.80608 28.118 2.03765 27.8934 1.65212 28.2552L1.94237 27.9127C1.61464 28.2328 1.67355 28.1149 1.63567 28.1301C2.15701 27.5449 2.09632 27.7573 2.4434 27.3924C2.63484 27.2407 2.11527 27.7311 2.40423 27.4833C2.73172 27.1451 2.49927 27.4266 2.88463 27.0648L2.80862 27.1138C2.90486 26.9815 3.03915 26.8901 3.17392 26.7606C3.32779 26.6239 3.11291 27.0294 3.71075 26.432C3.67326 26.4531 3.65729 26.4585 3.65384 26.4551L2.82347 26.7891C3.49003 26.1193 4.14846 25.4413 4.79862 24.7554C4.91452 24.5408 4.25954 25.217 4.28033 25.1518L3.97146 25.4827C4.00999 25.4855 4.64579 24.817 4.39447 25.1434C3.81662 25.6949 3.58489 25.9759 3.00817 26.4705C3.12528 26.2544 3.7203 25.7714 4.02997 25.3839C3.88726 25.5338 3.75875 25.6524 3.63217 25.7657L4.65823 24.692L4.75351 24.6199C4.50877 24.8772 4.33989 25.0556 4.31934 25.0797C4.64675 24.7416 4.95353 24.4874 5.01133 24.5011L4.95361 24.5617L5.08469 24.4524C5.16054 24.372 5.23607 24.2914 5.3112 24.2113ZM2.3466 2.48405C2.36337 2.50779 2.37526 2.52782 2.382 2.54462C2.37501 2.52709 2.39195 2.53743 2.3466 2.48405ZM2.46788 28.255L1.8145 28.9325L1.49175 29.2677L1.41172 29.3504C1.40064 29.3631 1.38018 29.3806 1.36115 29.3965C1.34149 29.4117 1.32415 29.4303 1.30191 29.4418C1.21747 29.4965 1.1181 29.5209 1.01977 29.5234C1.10831 29.5148 1.19379 29.492 1.26258 29.4449C1.29902 29.4251 1.3284 29.3971 1.35625 29.3692C1.38788 29.3404 1.40016 29.3191 1.42167 29.2947L1.63206 29.0356C1.75559 28.8814 1.84163 28.7681 1.86604 28.7214C1.89044 28.6747 1.85303 28.6947 1.72958 28.8071C1.66785 28.8632 1.58462 28.9424 1.4769 29.0479L1.29646 29.2262C1.27968 29.2443 1.26306 29.2565 1.24621 29.2703L1.22068 29.2912L1.19066 29.3068L1.16016 29.3231L1.12621 29.333C1.11465 29.3362 1.10333 29.3406 1.09137 29.343L1.05445 29.3464C1.05405 29.3515 0.950903 29.3368 0.952188 29.3332C1.0026 29.3389 1.06424 29.3419 1.12621 29.318C1.15848 29.3106 1.18721 29.29 1.21755 29.2724L1.25913 29.2373C1.27366 29.225 1.28979 29.2067 1.30536 29.1914C1.43894 29.0556 1.57418 28.9215 1.71104 28.789C1.91465 28.6275 2.1195 28.4676 2.32557 28.3093L2.62778 28.0792C2.70668 28.0202 2.75685 27.9844 2.75693 27.9883C2.69881 28.0865 2.56388 28.1789 2.42847 28.3273L2.46788 28.255ZM2.66422 27.8196C2.90703 27.5594 2.86569 27.6327 2.91859 27.6076L2.64977 27.8673C2.67955 27.8303 2.69103 27.8086 2.66422 27.8196ZM2.91762 27.6369C2.88977 27.6655 2.86641 27.6904 2.85574 27.705L2.91762 27.6369ZM3.10441 26.3203L3.07784 26.3453L3.25507 26.1604C3.23332 26.1869 3.18925 26.2347 3.10441 26.3203ZM2.63002 26.867L2.5447 26.901L2.71093 26.7277C2.70363 26.7587 2.69392 26.7889 2.63002 26.867ZM1.07901 28.5982C1.04554 28.6163 0.998744 28.6515 0.94649 28.694L0.864936 28.7619L0.843987 28.7796L0.833471 28.7885L0.828254 28.793L0.828094 28.7932C0.831626 28.7892 0.819827 28.8022 0.836041 28.7843L0.835801 28.7846L0.835156 28.7853L0.833954 28.7866L0.831546 28.789L0.793499 28.8286C0.777686 28.8433 0.775279 28.8511 0.769741 28.8594C0.764524 28.8681 0.75738 28.8748 0.75168 28.8846C0.743733 28.9071 0.729125 28.9269 0.72471 28.9466C0.719493 28.9661 0.712107 28.9831 0.706889 28.9963C0.703518 29.0096 0.698783 29.0189 0.692763 29.0226C0.687786 29.0364 0.681123 29.022 0.675665 28.9902L0.677032 28.9314C0.679761 28.9091 0.687865 28.8851 0.693324 28.8597C0.698862 28.847 0.705686 28.8353 0.711705 28.8228C0.718287 28.8104 0.72174 28.7976 0.734021 28.7846L0.765486 28.7451L0.773433 28.7351C0.775455 28.7331 0.77746 28.731 0.779451 28.7289L0.797433 28.7104C0.845513 28.6611 0.894957 28.6103 0.945927 28.5579C0.954676 28.5595 0.980042 28.5437 1.01881 28.5141C0.921607 28.6208 0.86253 28.6981 0.9257 28.6788C1.13929 28.3675 1.19404 28.4773 1.46438 28.1805C1.57948 28.1154 1.17477 28.5222 1.07901 28.5982ZM9.2729 8.43559C9.26174 8.43067 9.22618 8.41096 9.17746 8.38197L9.35894 8.60003C9.72184 8.94956 10.0577 9.18417 10.3333 9.55026C10.494 9.68966 10.5976 9.74667 10.6933 9.80426C10.6187 9.73198 10.5483 9.66486 10.4882 9.61051C9.6565 8.64372 9.95277 9.20888 9.2729 8.43559ZM13.4192 12.4809C13.3849 12.4418 13.3775 12.4228 13.3775 12.4228C14.1055 13.2872 14.7399 13.9637 15.1702 14.3916C15.0613 14.3343 14.6574 13.9684 14.4645 13.7959L14.5963 13.9882L14.7204 14.0662L14.9739 14.3754C14.8756 14.3165 14.6533 14.0845 14.4867 13.9476C14.4791 13.9287 14.0291 13.4064 13.9119 13.2517L14.3196 13.6207C14.2067 13.5238 13.6999 13.0001 13.5038 12.7877C13.5147 12.7687 13.8885 13.0988 13.9005 13.1757C13.9642 13.1957 13.5598 12.7882 13.8393 13.022C13.5596 12.6932 13.0575 12.2275 12.8227 12.0132L12.7478 12.0124C12.4879 11.7797 12.6265 11.8005 12.3133 11.5284C12.6648 11.8966 12.2121 11.5082 12.4947 11.7982C12.3895 11.7206 12.4537 11.8356 12.1705 11.5451C11.9815 11.2563 11.8384 11.2728 11.6566 11.0029C11.491 10.8671 11.7889 11.1954 11.4866 10.9043C11.173 10.5371 11.211 10.5382 11.2257 10.4812C11.553 10.7904 11.5358 10.8865 11.804 11.1388L11.3489 10.5582C11.4527 10.6451 11.524 10.7151 11.5806 10.7769C11.4804 10.6691 11.4014 10.5713 11.3384 10.4829L11.2374 10.3448C11.5302 10.6388 11.7908 10.8993 11.8519 10.9302L11.8289 10.8722C11.9483 10.9604 12.1047 11.1428 12.1698 11.2338C12.4298 11.4993 12.6673 11.7867 12.747 11.8218L12.6633 11.7058C12.9806 12.0348 13.0144 12.0731 13.4192 12.4809ZM7.36622 23.3499C7.49794 23.0898 7.65703 22.817 8.57866 21.912L8.50265 21.9797C8.92173 21.4779 9.44997 21.1324 9.964 20.5262C9.66918 20.7748 9.68595 20.7623 9.33221 21.0083L9.64084 20.7339C9.52574 20.7802 9.83357 20.5065 10.0452 20.2902L9.81599 20.4383C9.69976 20.579 9.37219 20.9172 9.37259 20.898C9.44981 20.8294 8.98626 21.3909 8.69682 21.6581C8.6977 21.6013 9.29473 21.0232 8.98771 21.2407C9.23734 21.0278 9.23822 20.9712 9.48898 20.7385C9.23878 20.9519 9.39386 20.7579 9.20154 20.9106L9.60625 20.5225C9.60729 20.5028 9.01002 21.081 9.29971 20.7207C9.4726 20.576 9.87715 20.1323 9.91472 20.1547L9.9152 20.1357C10.205 19.8311 10.0879 20.0471 10.4346 19.664C10.454 19.6748 10.395 19.7551 10.2616 19.8831C10.1448 19.9872 10.1073 19.9835 9.87627 20.2075C9.79793 20.3335 10.1469 19.9293 10.0291 20.1277C9.97058 20.2262 9.41312 20.7131 9.62351 20.5909L9.91279 20.2869C9.95036 20.3095 10.1627 20.0923 10.181 20.1227C10.3728 19.9518 10.5097 19.7462 10.7204 19.5866C10.8164 19.529 10.7187 19.6999 11.0084 19.3767C11.2029 19.0919 11.9149 18.3927 12.1848 18.1341L12.4345 17.9213C12.4333 17.9595 11.9914 18.362 12.1633 18.2371L12.5302 17.8825L12.4909 17.8988C12.6075 17.7763 12.7417 17.6662 12.8571 17.5635C12.7234 17.6544 12.473 17.9239 12.4932 17.8407C12.6559 17.6647 12.6701 17.6271 12.8313 17.4769C12.7952 17.5088 12.763 17.5351 12.7629 17.5263C13.0911 17.1689 13.1278 17.2294 13.2236 17.1535C13.6078 16.8487 12.915 17.5397 12.9911 17.528L14.0113 16.536C13.9155 16.612 13.8192 16.6887 13.8387 16.6432C14.0703 16.3811 13.8201 16.6132 14.167 16.2672C14.1851 16.3349 14.6285 15.8563 14.8973 15.6356C14.9937 15.5033 15.0137 15.4761 14.7639 15.7265C14.7634 15.6712 15.113 15.3409 15.2237 15.2245C15.2382 15.2126 15.2525 15.2004 15.2664 15.1878C15.2991 15.1584 15.3423 15.1248 15.3791 15.0847C15.3976 15.0646 15.4172 15.0453 15.4291 15.0221C15.4427 15 15.4574 14.9796 15.4639 14.9584C15.4516 15.0253 15.4463 15.0453 15.4753 15.0164C15.4816 15.0087 15.4919 14.9987 15.4996 14.9835C15.5068 14.9681 15.5151 14.949 15.5245 14.926C15.5342 14.903 15.5359 14.8743 15.5423 14.8423C15.545 14.8059 15.5436 14.7694 15.5381 14.7333L15.541 14.7139C15.5651 14.7979 15.5688 14.8987 15.535 14.9943C15.5034 15.0919 15.4274 15.1678 15.3557 15.2482L15.137 15.4808L14.9358 15.6897C14.807 15.8206 14.6919 15.9306 14.6075 15.9963L14.6841 15.947C14.2979 16.3836 13.7419 16.7948 13.6051 17.0377C13.6433 17.041 13.5275 17.1254 13.5646 17.1483L13.2392 17.4286L13.3157 17.3791L12.7953 17.8891L12.8145 17.881L12.159 18.4051C12.1454 18.3926 12.1572 18.3726 12.0662 18.4447C11.9945 18.5055 11.9262 18.5704 11.8617 18.639C11.8612 18.6393 11.8612 18.6393 11.861 18.6392L11.8612 18.6394C11.739 18.7701 11.6738 18.8734 11.5263 19.0372L12.0071 18.5599C12.0681 18.5431 12.0506 18.6071 11.832 18.8582C11.9286 18.7627 11.9859 18.7398 11.87 18.8616C11.8512 18.8688 11.5429 19.1622 11.6394 19.0294C11.1776 19.4778 10.5013 20.2754 9.77032 20.9261C10.2905 20.4535 9.40341 21.3551 9.96192 20.8114C9.61387 21.233 9.59702 21.1083 9.21157 21.5071C9.19102 21.5535 9.42276 21.2914 9.5377 21.2262C8.9019 21.8944 8.38377 22.272 7.76571 22.9155L7.76651 22.9704C7.64379 23.0866 7.50773 23.2157 7.36622 23.3499ZM6.08787 24.5667L5.70982 24.9279L5.74513 24.8906L5.35929 25.234C5.57183 24.9984 5.68871 24.8197 5.36186 25.1201C5.39958 25.1051 5.3222 25.2112 5.43755 25.1085C5.24466 25.336 4.80094 25.8147 4.87904 25.6521C5.32124 25.2867 4.91966 25.5041 5.26537 25.2153C5.0684 25.3587 4.91243 25.5403 4.73994 25.6894C4.92961 25.5443 4.75262 25.7805 4.51278 26.0437C4.39696 26.1467 4.10791 26.4504 3.91559 26.6218C3.95468 26.531 3.78211 26.6751 4.07115 26.3713C3.90695 26.5172 3.75227 26.6736 3.60809 26.8395C3.68699 26.7689 3.82047 26.641 3.82071 26.6594C3.72287 26.8051 3.57983 26.947 3.51144 27.0359L3.32041 27.2199C3.33646 27.1991 3.34938 27.1803 3.35709 27.1652L3.1268 27.3515C3.41552 27.0853 3.24287 27.211 3.22441 27.1995C3.26173 27.2221 3.05015 27.3826 2.95455 27.4769L3.12865 27.2381C3.0133 27.3222 2.80043 27.6143 2.82106 27.5306C3.24488 27.0789 3.41809 26.9155 3.82216 26.5278L3.68659 26.7138C4.14925 26.2832 3.91904 26.3951 4.41991 25.8936C4.64996 25.7071 5.17282 25.1391 5.22805 25.174C5.15172 25.2232 5.49919 24.8208 5.69079 24.669C5.92108 24.5199 6.49885 23.9497 6.34433 24.1429C6.19014 24.299 5.95953 24.4856 5.86192 24.6376L6.17039 24.3445L5.99597 24.5649C6.08972 24.4546 6.10168 24.4865 6.08787 24.5667ZM1.5375 27.3062L1.5485 27.294L1.53581 27.3071L1.5375 27.3062Z" fill="#202020"/>
<path d="M4.94039 4.00816C4.86409 3.91094 4.64832 3.69773 4.71237 3.71763C4.68281 3.73688 5.09114 4.10539 4.94039 4.00816ZM4.66065 3.77497C4.65138 3.75402 4.67112 3.75524 4.57589 3.65793L4.8342 3.92962L4.66065 3.77497ZM4.22637 3.67217C4.10801 3.51703 4.03187 3.42005 3.8161 3.20676C3.67647 3.18549 4.15007 3.57519 4.1918 3.72806C3.79394 3.33973 3.72513 3.16688 3.40744 2.83784C3.59211 2.97365 4.25956 3.61514 4.22637 3.67217ZM4.32587 3.92226L4.12098 3.6898L4.14596 3.70792L4.35101 3.94054L4.32587 3.92226ZM9.5668 8.15066C9.60507 8.15179 9.72279 8.30661 9.79119 8.38434C9.73068 8.32602 9.64286 8.24756 9.5668 8.15066ZM6.87435 7.92629L5.22763 6.23726L6.87435 7.92629ZM14.9697 13.8175C14.5402 13.3513 14.3735 13.1199 13.9262 12.6546C14.5624 13.2183 14.659 13.5071 15.2 13.9735L14.9697 13.8175ZM14.9597 13.511C14.8508 13.4717 15.2638 13.8982 15.1733 13.8588C14.8806 13.5478 15.0662 13.6846 14.7898 13.4132L14.9597 13.511ZM12.358 12.0562L12.4754 12.2104L12.3729 12.0942L12.358 12.0562ZM14.9984 16.3501L15.0556 16.3084L14.8425 16.5445L14.9984 16.3501ZM15.113 16.2669L15.0556 16.3084L15.113 16.2669ZM12.4574 12.306L12.2485 12.1113L12.1649 11.9952L12.4574 12.306ZM14.4224 13.9032L14.2533 13.7111C14.2869 13.7491 14.5477 13.9822 14.4224 13.9032ZM13.6444 17.739L13.4118 17.9456L13.4308 17.9197L13.6626 17.7137L13.6444 17.739ZM15.1142 15.1714C15.1256 15.1418 15.1053 15.1546 15.0797 15.1765L15.0404 15.212L14.9874 15.2618C14.9723 15.2752 14.965 15.2803 14.971 15.2703C14.9772 15.2609 14.9838 15.2519 14.9909 15.2433C14.9994 15.2317 15.0212 15.2065 15.0254 15.1985L15.0629 15.1649C15.1347 15.1042 15.1165 15.1467 15.1142 15.1714ZM12.7055 17.9543C12.6759 17.984 12.6438 18.0143 12.6108 18.0415L12.7055 17.9543ZM12.7055 17.9543C12.8009 17.8584 12.8862 17.7523 12.9594 17.6943C12.8525 17.8261 12.8046 17.865 12.7055 17.9543ZM11.6053 19.0462L11.6899 18.9573C11.5883 19.0329 11.6322 18.9927 11.7218 18.9242C11.8144 18.833 11.8177 18.8467 11.8345 18.8416L11.9013 18.7954L11.8164 18.8611C11.6745 19.0041 11.5864 19.0899 11.6053 19.0462ZM7.99316 23.5791C8.30288 23.2481 8.38079 23.1602 8.3426 23.1568C8.63951 22.8454 8.62822 22.9287 8.81958 22.7532C8.47216 23.0939 8.41157 23.1741 7.99316 23.5791ZM8.81958 22.7532L8.94116 22.6346C8.90179 22.6753 8.86124 22.7149 8.81958 22.7532ZM12.6565 17.5344L12.4259 17.7019L12.5032 17.6332L12.6565 17.5344ZM7.52915 24.066C7.58716 24.0051 7.68304 23.9106 7.7226 23.8566C7.76055 23.8604 7.47122 24.1266 7.52915 24.066ZM8.35444 22.4185C8.37418 22.3732 8.58641 22.1755 8.6648 22.0869C8.54798 22.2095 8.489 22.3457 8.35444 22.4185ZM6.52596 24.9007C6.58389 24.8398 6.66107 24.7343 6.60443 24.7567C6.70072 24.6804 6.85404 24.6002 6.52596 24.9007ZM7.77385 23.009L7.81236 22.956L8.04457 22.7498L7.77385 23.009ZM8.24712 21.917C8.518 21.6949 7.91662 22.3691 8.36153 21.9647C7.84072 22.5396 8.3683 21.8873 7.96899 22.2963C8.19685 22.0507 8.28112 21.903 8.24712 21.917ZM7.96891 22.2962C7.93596 22.3319 7.89946 22.37 7.85925 22.4106L7.96891 22.2962ZM4.6625 25.9309C4.6921 25.9051 4.72249 25.8803 4.75363 25.8564C4.72341 25.8825 4.69401 25.9069 4.6625 25.9309ZM6.66043 23.5687L7.06651 23.2359C6.79539 23.4583 6.177 24.0821 6.17853 24.006C6.37166 23.797 6.62305 23.5643 6.73826 23.4809L6.66043 23.5687ZM3.0995 28.4945L3.27353 28.3492L3.07887 28.5533C3.13027 28.4905 2.99999 28.5667 3.0995 28.4945ZM3.04116 28.5928L3.07887 28.5534C3.07129 28.5628 3.05945 28.5754 3.04116 28.5928ZM5.37814 25.2486C5.49464 25.1263 5.59101 25.0316 5.7063 24.9292C5.66827 24.9814 5.37789 25.2861 5.37814 25.2486ZM1.92323 29.5669L2.19266 29.3092L1.90293 29.5946L1.92323 29.5669ZM0.399951 28.3648L0.438385 28.3123L0.669785 28.1067L0.630627 28.16L0.399951 28.3648ZM1.63406 28.5179C1.80842 28.3348 1.98108 28.2285 1.94136 28.2824L1.5941 28.628C1.65284 28.5105 1.69087 28.5325 1.884 28.3239L1.63406 28.5179ZM9.56479 19.2737C9.4681 19.3317 9.10118 19.7227 9.09981 19.7611C9.15863 19.7182 9.37142 19.5201 9.25443 19.6613L8.90733 19.9136C8.53919 20.3431 9.27272 19.673 9.48623 19.4927C9.08692 19.9059 8.93528 19.995 8.50423 20.4281C8.59344 20.3328 8.67638 20.2318 8.75255 20.1257C8.73353 20.0772 8.34655 20.4956 8.05657 20.7813C8.22489 20.583 8.10669 20.6768 7.96029 20.7973C7.93523 20.8203 7.91742 20.8344 7.90381 20.8435L7.85385 20.8841L7.88842 20.8496C7.88213 20.8482 7.88519 20.836 7.90381 20.8048C8.15463 20.5727 8.31086 20.3593 8.46563 20.2031C8.36701 20.412 9.00683 19.6853 9.21881 19.5063L9.44949 19.2855L9.53393 19.201C9.54489 19.178 9.5133 19.1945 9.37399 19.3126C9.49211 19.2158 9.8459 18.8529 9.83051 18.9038L10.6475 18.0851C10.6692 18.0599 10.6894 18.0336 10.7083 18.0062C10.74 17.9812 10.7475 17.9793 10.7466 17.9859C11.7467 16.9841 12.7467 15.9825 13.7445 14.9808L13.7327 14.9664C13.7398 14.971 13.7481 14.9757 13.7574 14.9808C13.755 14.9945 13.7518 15.0131 13.7371 15.0367C13.7823 15.0279 13.7746 15.0389 13.7555 15.0607L13.7488 15.0686C13.7456 15.0723 13.7483 15.07 13.7319 15.0871C13.7078 15.1124 13.6854 15.1365 13.6678 15.1568C13.6326 15.1974 13.6166 15.2226 13.6451 15.2112C13.6787 15.1837 13.7149 15.1517 13.7517 15.1172C13.7761 15.094 13.7736 15.0973 13.78 15.0914L13.7943 15.0774C13.8126 15.0581 13.8265 15.038 13.8324 15.0237C13.8513 15.022 13.8582 15.0317 13.8622 15.0449C13.8666 15.0578 13.868 15.0745 13.8856 15.0777C13.8705 15.098 13.8538 15.1171 13.8359 15.135C13.8314 15.1392 13.7706 15.1973 13.7344 15.2292C13.6535 15.3013 13.5812 15.358 13.5089 15.4139C13.3645 15.526 13.2201 15.6355 13.0071 15.8619C13.0453 15.8654 13.199 15.7476 12.9092 16.0329L12.9867 15.9641C12.5038 16.4021 12.6756 16.3708 12.3293 16.604L12.3669 16.6265C12.1357 16.8131 11.73 17.2201 11.4973 17.4453L11.5167 17.4375C10.8411 18.0466 11.1495 17.7915 10.4151 18.4999L10.7815 18.2024C10.5476 18.4663 10.4535 18.4842 10.2791 18.6672C10.2977 18.6601 10.2782 18.7237 10.4521 18.5602L9.52498 19.3837C9.29374 19.5704 9.54513 19.3192 9.56479 19.2737ZM8.50423 20.4281C8.45245 20.4837 8.3992 20.5379 8.34453 20.5907L8.50423 20.4281Z" fill="#202020"/>
<path d="M13.5745 14.5946L13.6 14.6209C13.5893 14.6145 13.5805 14.6055 13.5745 14.5946ZM6.97512 21.3778C7.11276 21.2076 6.83838 21.4714 6.79998 21.4865L7.34963 20.9338C7.35884 20.9481 7.42627 20.9065 7.42603 20.9284L6.97512 21.3778Z" fill="#202020"/>
<path d="M7.73341 21.2021C7.75929 21.1916 7.82257 21.1403 7.89232 21.0815L7.60101 21.385C7.5943 21.3742 7.61915 21.332 7.73341 21.2021ZM8.28202 21.8919L8.3771 21.7948L8.52812 21.6555L8.28202 21.8919ZM9.70329 20.305C9.60822 20.4401 9.382 20.6489 9.30634 20.7187C9.55251 20.463 9.43952 20.5672 9.70329 20.305ZM9.58391 20.8137L9.83041 20.5769L9.81171 20.6035L9.58391 20.8137ZM12 13.0957L11.8862 12.973C11.925 13.013 11.963 13.0539 12 13.0957Z" fill="##202020"/>
<path d="M14 14.5378C13.9177 14.4806 13.9155 14.4925 13.9236 14.5129C13.933 14.5346 13.9573 14.5694 13.9549 14.585C13.932 14.5959 13.9151 14.5975 13.9013 14.59C13.9038 14.5885 13.9062 14.5869 13.9084 14.585C13.9024 14.5686 13.8952 14.5527 13.8868 14.5373L13.8747 14.5481L13.8486 14.5183L13.6809 14.3469C13.7783 14.405 13.8379 14.4622 13.8416 14.4246C13.3277 13.9271 13.6577 14.2896 13.2606 13.9447L12.6989 13.3758L12.7385 13.4277C12.6914 13.3796 12.6729 13.3561 12.6599 13.3363L10.7674 11.4189C10.4371 11.0561 10.9962 11.5735 10.7709 11.2876C11.1726 11.6893 11.7915 12.2642 11.7845 12.3394C11.7767 12.3202 11.7615 12.2823 11.8478 12.3589L12.0463 12.625L11.814 12.4142C12.0139 12.6816 12.776 13.4282 12.9333 13.5437C12.5157 13.1033 12.7717 13.278 12.1518 12.7024C12.1891 12.7189 12.3168 12.8099 12.188 12.6697C12.5323 13.0257 12.866 13.3559 13.2 13.6922C13.3688 13.8618 13.5363 14.0328 13.7025 14.2051L13.8291 14.3376L13.8926 14.4046L13.9234 14.4373L13.9328 14.4489C13.9576 14.4796 13.9805 14.5096 14 14.5378ZM7.20746 7.70843L7.20921 7.71767C7.1986 7.70309 7.19605 7.6975 7.20746 7.70843ZM7.44768 7.93835L7.74868 8.3199L7.21966 7.78464L7.20921 7.71775C7.24909 7.77197 7.42144 7.97279 7.50478 8.0341L7.44768 7.93835ZM8.12074 8.74044C7.85786 8.45368 7.90604 8.43534 8.07113 8.57007C7.83418 8.30236 7.90221 8.47273 7.76359 8.26386C7.79326 8.2456 8.09035 8.57063 8.15743 8.64653L8.12074 8.74044ZM10.1664 10.7503L10.1029 10.6592L10.2969 10.8459L10.1664 10.7503ZM10.1029 10.6592L9.91013 10.474C9.93342 10.4768 9.95639 10.4798 9.9942 10.5036L10.1029 10.6592ZM9.40448 9.98771C9.30961 9.89848 9.21576 9.80818 9.12295 9.71681L9.40448 9.98771ZM9.62916 10.1953L9.61839 10.1932L9.4044 9.98771C9.48488 10.0619 9.5569 10.1286 9.62916 10.1953Z" fill="##202020"/>
<path d="M9.96035 10.6474C9.90667 10.6399 9.84657 10.6283 9.58133 10.3459L9.67038 10.3639L9.96035 10.6474ZM11.4926 18.6221L11.7206 18.4171L11.7015 18.4439L11.4736 18.6486L11.4926 18.6221ZM12.7116 17.3412C12.7583 17.3004 12.8059 17.2607 12.8543 17.2221C12.7958 17.2763 12.7474 17.3176 12.7116 17.3412ZM13.7916 16.5657C14.0211 16.2853 13.412 16.8886 13.8698 16.4026C13.8894 16.3388 13.642 16.5332 13.4323 16.768C13.4703 16.771 13.6602 16.5631 13.5455 16.7219C13.3755 16.8467 13.3359 16.9195 13.3561 16.8365C13.0907 17.0671 13.0413 17.0728 12.8541 17.2221C13.1654 16.9335 13.7589 16.2666 14.1763 15.923C14.4216 15.7491 14.3457 15.9286 14.4 15.9821C14.3813 16.0267 13.8474 16.581 13.7916 16.5657ZM13.4472 17.0239C13.3328 17.1453 13.2949 17.1795 13.2187 17.2478C13.2198 17.2097 13.3519 17.1191 13.4472 17.0239ZM13.8208 13.7726C13.806 13.7423 13.6038 13.5177 13.6624 13.5505L13.9737 13.8862C13.8972 13.8109 13.8614 13.7934 13.8208 13.7726ZM14.1104 14.0333L13.9738 13.8862C14.0097 13.9212 14.0522 13.9664 14.1104 14.0333ZM13.8009 13.7619L13.8208 13.7726C13.8237 13.7788 13.8213 13.7796 13.8009 13.7619ZM8.66566 9.379C8.65551 9.39849 8.52135 9.24436 8.45387 9.16706C8.51342 9.22512 8.60017 9.30339 8.66566 9.379ZM3.34029 3.85361L3.20232 3.73717C3.25394 3.7755 3.28027 3.79523 3.34029 3.85361ZM1.79409 1.46974C1.79321 1.46306 1.78631 1.45122 1.77593 1.43616C1.78671 1.45074 1.79305 1.46209 1.79409 1.46974ZM1.77593 1.43608C1.70179 1.33607 1.41634 1.08467 1.3391 0.968555L1.34561 0.986673L1.26187 0.890526L1.23119 0.855256C1.22651 0.849781 1.2208 0.843741 1.21771 0.839473C1.2159 0.8362 1.21405 0.832952 1.21216 0.82973L1.20002 0.810806C1.20891 0.82828 1.27583 0.894472 1.33038 0.950678L1.50958 1.13597C1.62844 1.26038 1.73644 1.37794 1.77593 1.43608Z" fill="#202020"/>
</svg>
